<?xml version="1.0" standalone="no"?>
<!DOCTYPE svg PUBLIC "-//W3C//DTD SVG 20010904//EN"
 "http://www.w3.org/TR/2001/REC-SVG-20010904/DTD/svg10.dtd">
<svg version="1.0" xmlns="http://www.w3.org/2000/svg"
 width="1882.307972pt" height="1263.787817pt" viewBox="0 0 1882.307972 1263.787817"
 preserveAspectRatio="xMidYMid meet">
<metadata>
Created by potrace 1.16, written by Peter Selinger 2001-2019
</metadata>
<g transform="translate(-49.192028,1591.899423) scale(0.100000,-0.100000)"
fill="#ffffff" stroke="none">
<path d="M10036 15911 c-11 -4 -29 -21 -40 -38 -12 -17 -55 -74 -96 -127 -135
-173 -270 -364 -270 -381 0 -3 -20 -36 -44 -73 -122 -187 -257 -436 -369 -682
-14 -30 -46 -99 -71 -152 -25 -54 -46 -105 -46 -113 0 -8 -18 -59 -40 -112
-22 -54 -40 -102 -40 -108 -1 -5 -9 -28 -20 -50 -11 -22 -19 -46 -20 -52 0 -7
-9 -32 -19 -55 -10 -24 -23 -61 -29 -83 -5 -22 -22 -71 -36 -110 -40 -106 -63
-176 -71 -212 -4 -18 -12 -33 -18 -33 -7 0 -30 35 -52 77 -22 42 -58 104 -80
137 -54 83 -85 142 -85 160 0 9 -15 48 -34 88 -56 119 -122 303 -181 508 -20
69 -45 154 -55 190 -18 63 -46 182 -70 305 -7 33 -16 96 -20 140 -10 101 -33
160 -68 174 -52 20 -78 22 -114 7 -46 -20 -180 -168 -252 -279 -53 -82 -173
-313 -200 -384 -8 -21 -24 -63 -36 -93 -12 -30 -33 -91 -47 -135 -14 -44 -33
-102 -43 -130 -9 -27 -29 -104 -44 -170 -15 -66 -32 -140 -37 -165 -58 -245
-93 -504 -124 -905 -19 -246 -39 -401 -59 -446 -22 -51 -146 -155 -383 -321
-214 -150 -311 -225 -411 -322 -116 -112 -154 -166 -205 -286 -16 -36 -35 -77
-43 -92 -8 -14 -14 -32 -14 -40 0 -44 -106 -192 -169 -234 -129 -86 -157 -104
-168 -104 -6 0 -27 -9 -45 -19 -31 -18 -142 -59 -308 -114 -41 -14 -111 -39
-155 -57 -44 -17 -96 -36 -115 -40 -19 -5 -73 -22 -120 -39 -47 -16 -103 -33
-125 -37 -22 -3 -49 -11 -59 -16 -11 -6 -45 -17 -75 -24 -83 -19 -387 -108
-526 -153 -69 -22 -297 -92 -400 -123 -108 -32 -240 -93 -284 -132 -13 -12
-35 -39 -50 -61 -80 -122 -95 -193 -63 -295 28 -89 75 -203 113 -275 17 -33
45 -85 60 -115 16 -30 34 -62 39 -70 89 -132 270 -459 270 -488 0 -8 6 -26 14
-40 28 -51 66 -144 66 -161 0 -23 45 -115 74 -154 48 -63 281 -151 526 -201
198 -40 247 -47 392 -55 l156 -10 126 -60 c68 -34 130 -61 136 -61 7 0 26 -6
43 -14 69 -31 174 -74 217 -89 123 -42 331 -65 647 -72 244 -5 268 -7 342 -30
62 -20 86 -33 112 -63 34 -39 117 -207 138 -280 24 -84 49 -132 70 -132 29 0
78 46 91 85 6 19 15 35 20 35 10 0 20 -26 20 -53 0 -12 7 -35 15 -51 8 -15 15
-39 15 -51 0 -13 9 -47 19 -77 29 -82 58 -194 77 -298 9 -52 25 -131 34 -175
10 -44 25 -125 35 -180 9 -55 18 -110 21 -122 6 -30 47 -57 74 -48 11 3 34 18
50 32 25 20 33 23 45 13 8 -7 15 -23 15 -35 0 -12 7 -42 16 -66 12 -32 18 -89
21 -204 2 -88 6 -169 8 -180 6 -30 56 -55 109 -55 57 0 88 14 110 51 14 24 15
37 7 86 -6 32 -15 112 -20 178 -12 143 -32 248 -54 292 -10 18 -17 39 -17 48
0 9 -9 33 -20 54 -11 22 -22 59 -26 83 -7 48 -47 118 -67 118 -7 0 -22 -7 -33
-15 -32 -24 -54 -19 -54 13 0 15 -5 43 -10 62 -6 19 -18 67 -27 105 -35 155
-42 185 -78 320 -68 260 -74 280 -95 340 -12 33 -27 79 -35 102 -22 68 -152
320 -183 356 -8 9 -26 17 -38 17 -33 0 -74 -82 -74 -147 0 -74 -11 -83 -54
-45 -102 90 -257 129 -521 131 -141 1 -161 2 -360 21 -173 16 -258 33 -332 66
-17 8 -36 14 -43 14 -7 0 -26 6 -43 14 -18 8 -63 26 -102 41 -109 41 -185 74
-250 108 -57 30 -68 32 -211 38 -83 4 -175 12 -205 18 -30 6 -123 25 -208 42
-85 16 -166 36 -180 43 -14 7 -50 21 -79 31 -95 31 -152 101 -201 251 -56 170
-100 271 -148 337 -27 39 -32 51 -22 63 6 8 18 14 25 14 19 0 93 68 166 153
49 57 59 74 56 100 -2 26 -8 33 -29 35 -26 3 -196 -50 -286 -89 -61 -27 -67
-24 -106 53 -15 29 -32 60 -37 68 -5 8 -21 40 -35 70 -15 30 -33 66 -40 80
-32 62 -45 104 -45 153 0 92 65 145 255 207 39 13 80 29 91 37 12 8 44 18 70
22 27 5 63 14 79 20 17 5 71 22 120 36 108 31 167 48 385 114 91 27 224 66
295 86 72 19 141 41 155 46 24 11 51 19 195 59 39 10 95 28 125 40 52 20 112
42 190 70 50 18 116 44 186 74 34 14 64 26 68 26 13 0 172 104 197 129 14 14
42 38 62 54 47 35 153 213 212 355 64 155 81 181 166 258 117 106 169 146 366
284 43 30 114 83 158 117 44 34 98 76 120 93 158 121 201 159 216 190 24 46
46 216 78 605 31 363 74 674 110 795 6 19 11 48 11 65 0 36 28 141 76 285 20
58 39 123 44 145 12 62 125 333 158 382 10 16 40 61 66 101 27 40 53 71 59 69
7 -2 15 -33 19 -69 3 -36 13 -78 21 -94 8 -17 18 -48 22 -69 11 -61 57 -228
122 -434 40 -130 64 -194 164 -433 30 -73 62 -132 115 -214 19 -29 38 -63 44
-75 16 -37 122 -197 172 -260 16 -20 29 -45 29 -55 0 -36 -22 -239 -33 -304
-6 -36 -11 -195 -12 -360 -1 -260 -4 -302 -20 -350 -29 -85 -56 -152 -74 -187
-24 -48 -6 -62 84 -65 81 -2 98 6 134 58 25 37 29 39 120 55 134 23 235 45
249 53 17 11 13 71 -6 88 -19 17 -140 56 -207 67 l-39 6 69 70 c38 39 95 90
126 115 77 62 94 102 63 147 -18 25 -77 38 -106 22 -39 -21 -154 -48 -163 -39
-25 24 42 571 88 725 8 28 24 82 36 120 12 39 28 97 35 130 8 33 26 92 40 130
15 39 33 93 40 121 7 28 33 102 58 165 25 63 68 175 97 249 28 74 57 149 65
165 8 17 28 64 45 105 17 41 37 87 45 102 8 14 15 32 15 40 1 7 16 38 35 68
52 85 165 280 165 285 0 3 15 27 33 53 17 26 57 87 87 136 30 48 72 111 93
139 21 29 47 69 58 90 11 20 23 37 28 37 12 0 21 -53 22 -134 0 -39 5 -107 10
-151 6 -44 12 -128 14 -188 3 -59 11 -122 19 -140 7 -18 17 -87 20 -153 4 -65
19 -204 32 -309 14 -104 32 -244 39 -310 8 -66 19 -142 24 -170 6 -27 15 -84
22 -125 6 -41 20 -92 30 -112 11 -21 25 -61 33 -90 8 -29 24 -80 36 -113 12
-33 27 -83 35 -112 7 -29 20 -71 28 -95 8 -24 25 -79 37 -123 12 -44 28 -103
36 -130 7 -28 18 -91 24 -140 5 -50 14 -121 20 -160 5 -38 10 -176 10 -305 1
-129 4 -267 8 -307 l8 -72 124 -123 c69 -68 149 -143 178 -167 28 -23 52 -48
52 -53 0 -6 -18 -30 -40 -54 -22 -24 -40 -53 -40 -64 0 -25 81 -186 125 -250
17 -25 35 -52 39 -60 36 -74 196 -321 316 -489 129 -181 373 -501 419 -549 23
-24 58 -65 78 -90 21 -26 64 -77 98 -113 33 -36 71 -83 85 -103 14 -21 43 -56
65 -80 241 -254 428 -476 471 -561 8 -16 28 -50 44 -75 50 -78 87 -144 95
-170 4 -14 14 -34 21 -45 8 -11 14 -27 14 -36 0 -16 21 -70 61 -155 10 -22 19
-45 19 -52 0 -6 18 -50 41 -99 105 -225 157 -312 228 -384 36 -37 98 -105 413
-459 95 -107 205 -229 243 -271 39 -42 93 -105 120 -139 28 -34 91 -106 141
-159 116 -122 207 -224 388 -434 37 -42 75 -81 85 -86 10 -6 31 -29 47 -53 41
-61 320 -369 352 -390 69 -45 215 10 199 74 -8 30 -45 82 -122 167 -33 37 -87
99 -120 136 -33 38 -85 96 -116 130 -31 33 -62 70 -70 81 -8 12 -53 62 -99
110 -47 49 -103 110 -125 135 -22 26 -105 123 -183 216 -79 92 -151 173 -159
178 -9 6 -87 91 -175 190 -175 198 -269 303 -369 410 -36 38 -78 86 -93 105
-16 19 -69 79 -118 132 -106 115 -154 177 -190 249 -31 64 -108 244 -108 255
0 10 -45 123 -64 159 -9 17 -16 35 -16 41 0 18 -138 282 -176 338 -117 170
-155 220 -207 277 -73 82 -286 321 -356 402 -30 34 -80 90 -111 124 -66 71
-289 349 -410 508 -46 61 -86 112 -90 115 -4 3 -34 45 -66 94 -33 49 -80 121
-107 160 -26 39 -63 98 -83 131 -20 33 -55 92 -79 130 -84 134 -115 193 -109
208 3 8 16 20 30 28 32 17 84 81 84 104 0 39 -49 100 -140 175 -94 76 -286
274 -309 317 -7 14 -11 83 -11 190 -1 237 -16 533 -30 568 -6 16 -15 59 -20
95 -12 84 -63 264 -114 404 -14 38 -37 113 -52 165 -14 53 -34 123 -44 156
-36 116 -48 179 -75 380 -9 66 -20 149 -26 185 -18 123 -38 325 -54 530 -8
113 -20 225 -25 250 -11 53 -29 319 -39 585 -8 202 -16 235 -58 254 -27 12
-98 14 -127 2z"/>
<path d="M7046 11320 c-50 -45 -60 -83 -53 -220 6 -131 19 -169 70 -201 41
-26 128 -21 207 13 98 42 208 108 240 145 29 33 32 41 28 85 -4 33 -13 57 -29
74 -58 62 -258 134 -373 134 -47 0 -60 -4 -90 -30z"/>
<path d="M15535 5575 c-124 -12 -163 -22 -302 -74 -83 -30 -94 -36 -189 -97
-75 -49 -217 -202 -254 -276 -18 -35 -36 -67 -40 -73 -14 -17 -50 -116 -71
-195 -21 -78 -54 -442 -43 -470 3 -8 9 -71 14 -140 8 -132 37 -285 64 -335 9
-16 16 -36 16 -43 0 -12 41 -99 78 -168 36 -64 87 -125 146 -171 118 -93 123
-96 256 -157 171 -78 547 -117 781 -82 59 9 126 16 150 16 67 0 196 39 338
102 60 26 170 119 229 192 81 102 164 243 184 315 37 134 58 249 69 376 12
148 4 394 -16 475 -7 30 -18 77 -24 104 -15 63 -70 204 -93 238 -10 14 -18 29
-18 34 0 12 -72 96 -140 163 -144 142 -334 231 -550 259 -131 18 -449 21 -585
7z m439 -436 c54 -6 112 -17 130 -24 17 -8 43 -16 57 -19 56 -12 191 -150 238
-244 49 -97 62 -169 65 -347 3 -202 -17 -401 -48 -470 -47 -104 -126 -189
-210 -226 -12 -5 -28 -13 -36 -18 -59 -36 -125 -51 -266 -60 -306 -19 -499 33
-628 170 -62 65 -84 104 -116 204 -20 61 -24 97 -28 280 -7 353 24 473 155
601 43 43 88 74 147 103 73 36 99 43 198 54 121 13 185 13 342 -4z"/>
<path d="M1135 5563 c-236 -26 -390 -89 -499 -204 -104 -110 -129 -189 -142
-450 -12 -227 29 -355 150 -472 83 -81 193 -136 321 -161 39 -8 88 -19 110
-24 22 -6 112 -13 200 -16 88 -3 223 -8 300 -11 211 -8 332 -27 383 -58 58
-38 70 -61 78 -154 11 -135 -16 -200 -101 -246 -40 -22 -46 -22 -720 -25 -622
-2 -681 -4 -693 -19 -15 -21 -17 -365 -2 -394 10 -18 28 -19 648 -18 641 0
725 4 862 32 94 20 151 44 237 101 102 67 133 107 190 246 16 39 18 75 18 290
0 215 -2 249 -17 275 -10 17 -18 36 -18 44 0 27 -65 127 -114 174 -63 61 -170
119 -266 146 -67 19 -120 22 -500 32 -482 13 -478 12 -549 98 l-36 44 2 110 1
109 37 38 c61 62 76 64 717 68 496 3 568 5 579 19 10 11 12 62 10 206 -2 160
-5 195 -18 210 -16 17 -50 17 -577 15 -309 -1 -574 -3 -591 -5z"/>
<path d="M2941 5559 c-12 -5 -26 -20 -31 -35 -7 -17 -10 -399 -8 -1111 3 -950
5 -1085 18 -1093 8 -5 108 -10 221 -10 161 0 209 3 218 13 7 10 12 152 13 463
l3 449 519 3 c294 1 524 -2 529 -7 5 -5 8 -202 7 -446 -1 -398 1 -439 16 -456
16 -17 35 -19 229 -19 151 0 214 3 223 12 9 9 12 269 12 1108 0 979 -2 1098
-16 1118 -15 22 -19 22 -215 21 -177 -1 -201 -3 -221 -19 l-23 -18 -2 -422
c-2 -231 -5 -425 -8 -431 -4 -5 -210 -9 -525 -9 -463 0 -519 2 -524 16 -3 9
-6 204 -6 434 0 366 -2 421 -16 434 -13 13 -45 16 -203 14 -103 -1 -198 -5
-210 -9z"/>
<path d="M5846 5548 c-228 -39 -348 -115 -418 -263 l-33 -70 0 -780 c0 -751 1
-782 19 -825 31 -70 82 -135 137 -175 52 -37 148 -85 171 -85 8 0 39 -9 71
-20 54 -19 82 -20 725 -20 506 0 671 3 680 12 17 17 17 389 0 406 -9 9 -162
12 -625 12 -661 0 -666 0 -694 52 -18 31 -26 405 -10 421 8 8 164 11 570 9
523 -2 559 -1 574 16 13 14 16 48 18 195 1 171 1 179 -21 202 l-22 23 -556 1
c-434 1 -557 4 -564 13 -4 7 -8 98 -8 201 l0 189 29 29 29 29 634 0 c480 0
637 3 646 12 9 9 12 69 12 209 0 193 -1 198 -22 213 -20 14 -95 16 -628 15
-545 -2 -616 -4 -714 -21z"/>
<path d="M8145 5559 c-27 -5 -79 -14 -115 -20 -151 -24 -282 -103 -344 -208
-63 -109 -62 -78 -56 -936 l5 -780 37 -56 c73 -110 169 -173 342 -225 l80 -24
653 0 c432 0 661 4 674 10 18 10 19 23 19 200 0 184 -1 189 -22 204 -20 14
-96 16 -630 16 -543 0 -611 2 -642 16 -58 28 -66 63 -68 268 -1 166 0 180 18
193 16 13 96 14 565 9 531 -6 547 -5 571 14 25 19 25 20 25 196 0 171 0 178
-22 200 l-22 22 -349 -2 c-192 -2 -446 0 -564 3 l-215 6 -5 75 c-9 127 5 325
24 355 l16 25 640 0 c627 0 640 0 660 20 18 18 20 33 20 196 0 170 -6 207 -34
226 -16 11 -1201 7 -1261 -3z"/>
<path d="M9915 5546 c-25 -25 -25 -26 -25 -210 0 -185 0 -186 24 -201 22 -15
92 -16 638 -14 607 1 614 1 680 -21 48 -15 76 -31 97 -56 38 -42 71 -152 71
-230 -1 -64 -26 -170 -52 -220 -22 -41 -82 -92 -116 -100 -15 -3 -40 -11 -57
-17 -21 -8 -219 -12 -640 -14 -604 -4 -610 -4 -627 -24 -17 -20 -18 -61 -18
-559 0 -476 2 -540 16 -554 23 -24 379 -24 412 0 l23 16 -2 345 c0 190 3 349
8 353 4 4 220 10 478 12 415 4 476 7 525 22 93 30 164 60 189 78 13 10 28 18
33 18 37 0 176 166 231 276 47 94 78 293 70 454 -15 313 -164 523 -437 612
-142 47 -196 50 -864 55 l-632 4 -25 -25z"/>
<path d="M12243 5563 c-32 -22 -33 -68 -33 -1143 1 -956 3 -1081 16 -1095 13
-13 82 -15 542 -15 404 0 554 4 642 15 160 20 226 32 274 49 22 8 59 19 81 25
55 15 254 134 288 174 58 66 137 176 137 191 0 8 5 18 10 21 13 8 60 100 60
117 0 7 7 26 16 43 8 16 22 60 30 98 8 38 20 78 26 90 9 16 12 102 12 312 0
271 -1 295 -23 375 -59 219 -126 348 -238 465 -47 48 -100 93 -118 101 -19 7
-36 18 -39 23 -9 14 -132 69 -205 91 -36 11 -115 30 -176 42 -104 20 -144 22
-700 25 -324 2 -595 0 -602 -4z m1199 -458 c99 -18 220 -66 280 -110 95 -70
136 -161 150 -340 12 -156 2 -464 -17 -519 -8 -22 -15 -48 -15 -56 0 -22 -37
-87 -74 -132 -34 -42 -146 -121 -186 -132 -14 -4 -38 -13 -55 -21 -79 -35
-206 -48 -518 -53 -233 -3 -311 -1 -322 8 -13 11 -15 105 -15 680 0 544 2 670
13 679 9 7 108 12 293 14 313 4 357 2 466 -18z"/>
<path d="M18095 5559 c-254 -27 -416 -89 -551 -211 -102 -93 -126 -125 -194
-258 -58 -114 -110 -394 -110 -595 0 -200 45 -554 84 -663 25 -69 121 -233
168 -287 74 -84 219 -165 373 -210 82 -23 112 -26 335 -31 248 -6 549 6 605
25 17 6 50 17 75 25 95 30 132 47 198 91 101 67 166 163 213 315 23 73 24 85
24 458 l0 384 -24 19 c-22 18 -45 19 -475 19 -392 0 -454 -2 -474 -16 -21 -15
-22 -21 -22 -192 0 -145 3 -182 16 -200 15 -22 19 -22 249 -22 128 0 240 -3
249 -6 14 -5 16 -29 16 -164 0 -87 -5 -171 -11 -187 -13 -35 -40 -57 -108 -88
-53 -25 -56 -25 -350 -25 -286 0 -298 1 -351 23 -154 64 -218 129 -265 270
l-26 75 4 334 c3 307 5 338 24 401 26 80 43 104 126 175 49 42 78 58 143 77
l80 25 550 0 c521 0 552 1 567 18 15 16 17 45 17 199 0 163 -2 183 -19 204
l-19 24 -519 1 c-285 1 -554 -2 -598 -7z"/>
</g>
</svg>
