<?xml version="1.0" standalone="no"?>
<!DOCTYPE svg PUBLIC "-//W3C//DTD SVG 20010904//EN"
 "http://www.w3.org/TR/2001/REC-SVG-20010904/DTD/svg10.dtd">
<svg version="1.0" xmlns="http://www.w3.org/2000/svg"
 width="1147.679880pt" height="965.118935pt" viewBox="0 0 1147.679880 965.118935"
 preserveAspectRatio="xMidYMid meet">
<metadata>
Created by potrace 1.16, written by Peter Selinger 2001-2019
</metadata>
<g transform="translate(-345.012869,1023.733020) scale(0.100000,-0.100000)"
fill="#ffffff" stroke="none">
<path d="M10003 10230 c-12 -5 -27 -19 -34 -32 -6 -13 -35 -52 -62 -87 -28
-35 -60 -76 -71 -91 -12 -16 -48 -64 -80 -107 -33 -43 -82 -114 -110 -158 -27
-44 -68 -109 -91 -145 -119 -185 -272 -468 -340 -630 -14 -34 -45 -103 -69
-153 -69 -146 -76 -164 -76 -184 0 -10 -9 -31 -20 -48 -11 -16 -20 -38 -20
-48 0 -11 -6 -31 -14 -45 -7 -15 -23 -54 -35 -87 -12 -33 -30 -82 -41 -110
-10 -27 -21 -63 -25 -80 -5 -27 -41 -124 -65 -180 -7 -16 -42 -129 -56 -182
-9 -33 -36 -5 -84 82 -28 52 -73 130 -100 173 -28 42 -50 83 -50 91 0 7 -17
55 -39 105 -21 50 -48 118 -60 151 -13 33 -36 89 -52 125 -16 36 -31 81 -35
100 -3 19 -16 69 -29 110 -78 252 -155 587 -155 676 0 47 -23 120 -46 145 -21
24 -86 33 -126 19 -40 -14 -152 -139 -236 -265 -59 -88 -212 -377 -212 -401 0
-11 -32 -93 -49 -124 -4 -8 -20 -58 -35 -110 -15 -52 -36 -117 -46 -145 -10
-27 -28 -97 -40 -155 -12 -58 -28 -132 -35 -165 -48 -211 -67 -334 -99 -640
-9 -77 -18 -189 -21 -250 -10 -177 -44 -414 -65 -456 -11 -20 -43 -57 -72 -82
-67 -57 -347 -264 -518 -383 -46 -32 -142 -115 -211 -184 -121 -119 -129 -130
-173 -225 -26 -55 -55 -117 -66 -137 -11 -20 -20 -44 -20 -52 0 -45 -102 -187
-165 -229 -109 -74 -144 -95 -166 -102 -13 -4 -44 -18 -69 -31 -52 -26 -141
-59 -219 -80 -29 -8 -85 -27 -125 -43 -122 -48 -176 -67 -316 -110 -127 -40
-163 -51 -335 -100 -38 -11 -108 -31 -155 -45 -239 -72 -335 -101 -440 -133
-63 -19 -144 -43 -180 -53 -206 -58 -341 -120 -393 -180 -54 -63 -107 -178
-107 -230 0 -49 23 -130 65 -231 50 -120 163 -334 241 -455 30 -46 54 -87 54
-90 0 -4 17 -34 38 -68 63 -105 112 -213 182 -406 48 -134 71 -165 151 -206
92 -46 301 -114 429 -139 184 -36 251 -45 402 -55 l157 -10 98 -49 c54 -27
121 -56 148 -65 28 -9 64 -23 80 -30 250 -114 403 -141 840 -151 399 -9 447
-29 541 -230 24 -51 46 -105 50 -121 17 -72 57 -154 74 -154 28 0 66 37 84 81
21 51 38 46 53 -17 6 -27 16 -62 21 -79 41 -123 71 -230 82 -290 4 -22 28
-141 53 -265 25 -124 48 -246 52 -272 6 -48 37 -98 59 -98 7 0 34 14 60 31 26
17 49 29 53 26 13 -13 45 -148 54 -222 5 -44 8 -124 7 -177 -2 -82 0 -100 17
-117 61 -68 220 -22 200 58 -3 14 -10 88 -15 164 -5 76 -12 148 -16 160 -4 12
-13 51 -19 87 -7 36 -25 97 -40 135 -15 39 -32 88 -37 110 -18 70 -42 128 -60
139 -13 8 -25 6 -48 -8 -39 -23 -60 -15 -60 23 0 26 -42 209 -84 371 -8 30
-25 93 -37 140 -90 352 -127 453 -251 686 -43 79 -56 94 -83 94 -32 0 -66 -73
-73 -156 -4 -52 -8 -64 -22 -64 -10 0 -20 7 -24 15 -7 20 -89 71 -151 94 -86
32 -225 51 -380 51 -79 0 -191 5 -247 10 -314 31 -328 34 -493 95 -38 15 -83
31 -100 37 -79 27 -169 65 -264 109 -94 45 -111 49 -176 49 -107 0 -260 18
-398 46 -67 13 -145 29 -172 33 -28 5 -66 16 -85 24 -19 9 -60 25 -91 37 -92
35 -146 106 -198 260 -55 162 -86 232 -144 325 -37 60 -37 60 -16 75 133 96
242 215 237 259 -2 18 -10 27 -25 29 -23 3 -188 -49 -281 -89 -46 -21 -54 -21
-67 -8 -17 17 -60 94 -104 187 -17 34 -39 75 -50 91 -12 16 -21 37 -21 48 0
10 -7 27 -15 37 -9 12 -15 42 -15 76 0 50 4 61 35 97 37 44 102 79 210 113 39
13 86 31 105 41 19 11 42 19 50 19 8 0 47 9 85 21 39 11 102 30 140 41 39 12
97 29 130 40 173 54 339 104 415 124 77 20 164 46 360 106 36 11 94 28 130 37
36 10 95 30 131 45 36 14 71 26 77 26 12 0 121 41 188 72 22 10 48 18 57 18 9
0 18 4 22 9 3 5 22 15 43 21 54 18 176 95 264 168 105 88 179 210 278 462 28
68 45 94 89 138 74 71 275 233 381 307 47 32 121 86 165 119 44 34 92 69 106
78 14 9 32 23 40 30 8 7 51 42 95 76 114 87 131 115 144 232 6 52 15 129 20
170 11 86 25 233 45 470 15 178 36 342 54 430 6 30 18 91 27 135 9 44 21 107
26 140 13 76 29 138 78 295 21 69 42 136 45 150 8 28 85 225 110 280 35 77
108 198 146 242 28 32 29 32 44 14 9 -12 15 -41 15 -70 0 -29 9 -70 20 -95 11
-24 20 -53 20 -65 0 -12 9 -47 20 -79 11 -31 20 -67 20 -79 0 -13 6 -35 14
-49 7 -14 16 -42 20 -62 9 -46 104 -329 144 -427 77 -188 103 -244 153 -330
30 -51 70 -121 89 -155 19 -34 50 -82 68 -106 130 -174 131 -175 121 -236 -31
-179 -43 -356 -44 -623 l-1 -285 -33 -95 c-18 -52 -41 -110 -52 -128 -24 -42
-24 -59 0 -72 46 -24 181 -1 181 31 0 4 11 21 25 37 20 24 35 31 82 37 68 8
228 42 261 56 33 13 28 68 -8 85 -44 21 -165 54 -198 54 -18 0 -32 3 -32 6 0
13 100 117 170 175 89 74 99 87 100 117 0 58 -51 83 -118 57 -63 -24 -162 -48
-169 -41 -8 8 14 330 27 407 5 30 18 106 29 169 17 99 40 185 93 349 6 19 16
60 23 90 7 31 25 88 39 126 14 39 31 90 36 114 6 23 31 95 56 160 25 64 66
168 90 231 25 63 55 140 69 170 13 30 47 109 76 175 47 108 90 188 182 340 17
28 39 68 50 90 11 21 27 51 37 65 42 60 217 325 237 359 39 63 47 49 60 -104
7 -77 16 -210 22 -297 5 -92 15 -166 22 -180 8 -13 19 -93 26 -188 6 -91 19
-217 27 -280 9 -63 25 -185 36 -270 11 -85 24 -177 29 -205 6 -27 15 -81 21
-120 6 -38 21 -97 34 -130 28 -69 73 -208 123 -380 111 -376 131 -522 132
-948 1 -180 5 -275 12 -290 14 -27 223 -235 297 -296 31 -25 52 -51 52 -63 0
-11 -16 -38 -35 -61 -19 -22 -35 -50 -35 -62 0 -66 378 -672 593 -950 21 -28
79 -104 128 -170 50 -66 105 -136 122 -155 18 -19 72 -82 119 -140 47 -58 98
-116 113 -130 15 -14 37 -41 50 -60 21 -33 179 -213 291 -330 29 -30 63 -68
75 -85 13 -16 46 -58 74 -92 68 -84 118 -151 133 -182 6 -14 26 -46 42 -71 34
-51 130 -242 130 -259 0 -10 15 -47 51 -127 11 -23 19 -46 19 -51 0 -13 99
-233 139 -308 34 -65 91 -146 131 -186 58 -58 163 -175 300 -334 52 -60 102
-116 111 -125 27 -24 288 -318 364 -410 39 -46 86 -100 105 -119 30 -30 129
-139 299 -326 20 -22 69 -79 109 -128 41 -48 83 -94 96 -102 12 -8 35 -33 51
-56 17 -22 101 -120 188 -217 179 -201 193 -211 277 -186 57 17 86 50 74 86
-7 23 -50 80 -129 169 -125 143 -286 323 -440 494 -40 44 -136 154 -214 245
-78 91 -177 201 -220 245 -43 44 -95 101 -117 126 -68 79 -337 381 -390 439
-29 30 -67 73 -85 94 -19 22 -80 89 -136 150 -156 170 -183 210 -248 366 -14
36 -30 74 -35 85 -5 11 -16 39 -25 63 -54 151 -46 131 -141 327 -37 77 -97
183 -133 235 -35 52 -78 115 -94 140 -17 25 -58 75 -91 111 -34 36 -92 103
-131 149 -38 46 -108 124 -155 175 -47 50 -110 120 -140 155 -30 35 -62 71
-71 79 -25 25 -225 273 -350 433 -153 198 -280 381 -397 573 -146 240 -182
304 -176 319 3 9 21 25 40 37 39 24 74 69 74 96 0 35 -46 94 -125 159 -91 76
-300 287 -319 324 -10 19 -15 105 -19 340 -5 336 -8 369 -68 615 -34 142 -47
187 -92 320 -19 55 -44 134 -56 175 -12 41 -27 89 -32 105 -6 17 -17 57 -24
90 -7 33 -17 72 -23 87 -6 14 -14 55 -17 90 -3 34 -12 104 -20 153 -36 232
-61 454 -80 710 -8 110 -20 223 -25 250 -10 55 -39 496 -43 667 -2 90 -5 111
-23 135 -18 24 -29 28 -75 30 -30 1 -64 -2 -76 -7z"/>
<path d="M7072 5670 c-78 -18 -102 -67 -102 -207 0 -129 9 -166 52 -210 28
-29 38 -33 84 -33 55 0 147 30 224 74 25 14 61 34 81 45 42 23 88 75 90 99 5
73 -28 119 -118 161 -53 26 -253 84 -273 80 -3 -1 -20 -5 -38 -9z"/>
</g>
</svg>
