<?xml version="1.0" standalone="no"?>
<!DOCTYPE svg PUBLIC "-//W3C//DTD SVG 20010904//EN"
 "http://www.w3.org/TR/2001/REC-SVG-20010904/DTD/svg10.dtd">
<svg version="1.0" xmlns="http://www.w3.org/2000/svg"
 width="1880.575236pt" height="228.737186pt" viewBox="0 0 1880.575236 228.737186"
 preserveAspectRatio="xMidYMid meet">
<metadata>
Created by potrace 1.16, written by Peter Selinger 2001-2019
</metadata>
<g transform="translate(-47.911845,275.481642) scale(0.100000,-0.100000)"
fill="#ffffff" stroke="none">
<path d="M15545 2750 c-126 -11 -184 -24 -311 -71 -151 -56 -204 -88 -302
-183 -139 -133 -226 -288 -272 -484 -42 -175 -45 -598 -5 -742 8 -30 15 -68
15 -83 0 -15 9 -45 20 -67 11 -22 20 -46 20 -55 0 -22 94 -199 136 -256 71
-97 317 -254 430 -275 22 -3 48 -11 58 -17 11 -5 97 -20 192 -32 181 -24 209
-24 529 4 111 10 237 38 310 70 22 10 60 27 85 37 153 65 373 341 419 524 57
230 77 409 67 625 -7 155 -20 226 -73 390 -44 139 -92 220 -184 316 -153 159
-320 245 -550 283 -114 18 -446 27 -584 16z m400 -420 c102 -14 210 -47 255
-79 105 -74 203 -215 234 -337 19 -72 22 -389 6 -541 -23 -221 -117 -337 -353
-438 -112 -48 -493 -48 -612 0 -95 38 -153 73 -208 125 -69 66 -97 111 -133
216 -26 74 -28 92 -32 291 -5 233 9 358 50 449 69 158 228 278 408 309 95 16
281 18 385 5z"/>
<path d="M1026 2720 c-179 -30 -288 -78 -381 -167 -103 -98 -138 -172 -156
-323 -23 -198 -5 -388 46 -489 68 -133 246 -252 420 -280 33 -5 74 -15 90 -21
18 -7 146 -15 320 -21 336 -11 504 -29 562 -59 72 -37 85 -59 96 -162 15 -143
-13 -211 -107 -261 -41 -22 -42 -22 -723 -25 l-683 -3 -5 -22 c-3 -12 -4 -103
-3 -202 l3 -180 645 -3 c618 -2 701 0 859 28 75 13 155 47 230 97 109 73 149
126 188 247 21 63 23 87 23 295 0 184 -3 231 -15 247 -8 10 -15 28 -15 38 0
35 -54 127 -103 177 -64 65 -170 126 -266 154 -84 25 -152 29 -691 40 -227 5
-237 6 -288 31 -65 32 -117 97 -126 157 -4 23 -2 76 4 117 9 65 15 80 44 109
62 62 83 64 716 68 398 3 568 7 578 15 19 16 13 377 -7 401 -12 16 -65 17
-580 16 -501 -1 -579 -3 -675 -19z"/>
<path d="M2912 2724 l-22 -15 0 -1092 c0 -601 4 -1098 8 -1105 7 -9 58 -12
222 -10 l214 3 8 35 c4 19 7 222 6 451 -1 228 2 420 5 426 9 14 1045 9 1059
-5 6 -6 9 -175 8 -449 -1 -368 2 -442 13 -452 10 -8 76 -11 228 -9 l214 3 8
60 c4 33 6 529 5 1103 -3 1020 -3 1044 -22 1058 -16 11 -62 14 -211 14 -182 0
-193 -1 -211 -21 -18 -20 -19 -44 -21 -437 -1 -229 -5 -422 -7 -429 -7 -17
-1051 -19 -1061 -2 -4 5 -6 197 -6 426 2 361 0 418 -14 439 -15 24 -16 24
-208 24 -158 0 -197 -3 -215 -16z"/>
<path d="M5832 2720 c-120 -22 -158 -33 -232 -70 -87 -44 -142 -99 -181 -182
l-34 -73 -3 -773 -2 -772 21 -53 c58 -137 158 -216 352 -276 66 -20 86 -21
742 -21 670 0 674 0 685 21 14 25 9 364 -5 378 -6 6 -240 11 -635 13 -671 3
-652 2 -688 55 -15 24 -17 54 -17 233 l0 205 571 3 c445 2 574 5 582 15 6 7
12 85 13 190 2 152 0 180 -14 194 -14 14 -78 17 -573 20 -394 3 -562 7 -572
15 -10 9 -13 52 -10 211 l3 199 33 29 32 29 628 0 c377 0 633 4 642 10 12 8
15 41 15 200 0 178 -1 193 -19 206 -17 12 -117 14 -625 13 -540 -1 -617 -3
-709 -19z"/>
<path d="M8080 2723 c-130 -20 -233 -56 -306 -108 -60 -44 -74 -59 -115 -132
-44 -77 -44 -90 -39 -908 l5 -780 36 -55 c20 -30 54 -71 76 -92 50 -44 167
-101 266 -128 70 -19 98 -20 738 -18 l664 3 3 187 c2 159 0 188 -13 202 -15
14 -77 16 -558 18 -738 2 -693 1 -724 24 -56 42 -63 72 -63 270 0 143 3 184
14 193 10 9 164 12 570 11 524 0 557 1 574 18 16 16 18 37 17 190 0 144 -3
174 -17 188 -14 14 -77 16 -578 19 -457 3 -564 6 -572 17 -5 7 -7 102 -6 210
3 182 5 199 24 225 l21 28 638 3 c568 2 641 4 656 18 16 14 18 37 19 195 0
166 -1 180 -20 199 -20 20 -32 20 -617 19 -463 -1 -619 -5 -693 -16z"/>
<path d="M9901 2721 c-20 -20 -21 -33 -21 -200 0 -150 3 -182 16 -195 14 -14
85 -16 636 -16 608 0 622 0 682 -21 117 -41 170 -132 170 -294 0 -109 -31
-207 -85 -268 -33 -39 -52 -50 -108 -67 -65 -19 -95 -20 -670 -20 -588 0 -601
0 -621 -20 -20 -20 -20 -33 -20 -558 0 -405 3 -541 12 -550 17 -17 389 -17
406 0 9 9 12 102 12 359 0 265 3 349 13 357 7 6 185 12 487 14 l475 5 94 32
c174 60 257 124 345 265 45 73 65 121 103 251 25 86 25 342 0 440 -61 236
-191 377 -412 448 -143 46 -199 49 -862 54 -627 4 -632 4 -652 -16z"/>
<path d="M12221 2721 c-21 -21 -21 -25 -21 -1109 0 -833 3 -1091 12 -1100 15
-15 1063 -17 1166 -2 37 5 101 14 142 20 98 14 199 44 279 83 80 39 208 121
233 150 56 66 128 168 128 181 0 8 5 18 10 21 14 8 49 78 72 140 70 190 94
395 79 669 -6 97 -13 181 -16 185 -3 5 -14 42 -24 83 -46 174 -117 308 -225
418 -43 44 -96 91 -119 103 -157 86 -233 114 -410 149 -106 21 -141 22 -699
26 -581 3 -587 3 -607 -17z m1217 -431 c232 -51 339 -131 397 -298 20 -57 24
-94 29 -247 11 -360 -19 -514 -126 -637 -25 -29 -155 -118 -172 -118 -6 0 -23
-7 -38 -14 -15 -8 -78 -25 -140 -37 -101 -20 -146 -22 -420 -23 -168 -1 -310
2 -314 7 -4 4 -8 313 -9 688 -1 602 1 681 15 689 8 5 166 10 350 10 300 0 346
-2 428 -20z"/>
<path d="M18080 2730 c-276 -27 -436 -95 -591 -249 -80 -81 -100 -108 -155
-221 -55 -112 -104 -388 -104 -585 0 -186 39 -513 76 -639 18 -65 125 -252
175 -310 95 -108 289 -200 479 -226 84 -12 634 -12 725 0 132 17 270 66 368
131 102 68 167 167 214 324 16 53 18 105 18 443 0 368 -1 384 -19 398 -17 12
-97 14 -472 14 -398 0 -454 -2 -468 -16 -24 -23 -24 -355 0 -378 17 -17 27
-18 319 -20 94 -1 176 -5 183 -10 16 -9 17 -309 1 -354 -11 -33 -58 -74 -99
-87 -14 -4 -31 -13 -39 -19 -10 -8 -109 -11 -325 -11 -338 0 -317 -3 -441 62
-91 47 -148 115 -187 224 -22 62 -23 74 -23 404 0 329 1 342 24 415 40 130
137 222 279 266 l77 24 550 0 c415 0 554 3 563 12 19 19 17 368 -2 394 -14 18
-32 19 -533 20 -285 1 -552 -2 -593 -6z"/>
</g>
</svg>
